# xmcd
#
# Track frame offsets:
#	150
#	9698
#	29048
#	48670
#	68625
#	73093
#	87595
#	103370
#	105763
#	123138
#	138598
#	157885
#	162150
#	177018
#
# Disc length: 2427 seconds
#
# Revision: 1
# Processed by: cddbd v1.5.1PL0 Copyright (c) Steve Scherf et al.
# Submitted via: CDex 1.50Beta5
#
DISCID=bb09790e
DTITLE=CASCADE - BUTTERFLY LIMITED EXPRESS
DYEAR=2001
DGENRE=Rock
TTITLE0=CASCADELIA
TTITLE1=BUTTERFLY LIMITED EXPRESS
TTITLE2=Deep forest
TTITLE3=STRAWBERRY MOON
TTITLE4=CASCADELIA special
TTITLE5=PANIC in the morning
TTITLE6=夢の華散るまでに
TTITLE7=恋は変じゃない
TTITLE8=MONSTER
TTITLE9=BEATNIC MACHINEGUN
TTITLE10=Sexy Sexy,
TTITLE11=CASCADELIA DX
TTITLE12=CANDY BEACH
TTITLE13=パッと!CASCADELIA
EXTD=
EXTT0=
EXTT1=
EXTT2=
EXTT3=
EXTT4=
EXTT5=
EXTT6=
EXTT7=
EXTT8=
EXTT9=
EXTT10=
EXTT11=
EXTT12=
EXTT13=
PLAYORDER=
